# xmcd CD database file
#
# Track frame offsets:
#	150
#	17418
#	38367
#	60222
#	80279
#	101464
#	121886
#	138598
#	157245
#	179250
#	198627
#	217608
#	243037
#	259612
#	277445
#	305440
#	317806
#	326825
#
# Disc length: 4460 seconds
#
# Revision: 0
# Processed by: cddbd v1.5.2PL0 Copyright (c) Steve Scherf et al.
# Submitted via: Feurio! 1.68 - http://www.feurio.com
#
DISCID=f0116a12
DTITLE=Various Artist - So Good Make You Wanna Holla
DYEAR=1900
DGENRE=
TTITLE0=Angie Stone - Pop, Pop
TTITLE1=Ledesi - Alright
TTITLE2=Ali "Ollie" Woodson - My Na Na
TTITLE3=Chaka Khan - Angel
TTITLE4=Anita Baker - You Belong To Me
TTITLE5=Glenn Jones - Another Sad Love Song
TTITLE6=Queen Latifah - What Love Had Joined Together
TTITLE7=Will Downing - No One Could Love You More
TTITLE8=Robin Thicke - Can You Believe
TTITLE9=Incognito - Everybody Loves The Sunshine
TTITLE10=Heatwave - All You Do Is Dial
TTITLE11=Bob Baldwin - Being With You
TTITLE12=Ben Tankard - Remind Me
TTITLE13=Jill Scott - Insomnia
TTITLE14=Pharoah - Let 'Em In
TTITLE15=Keezo Kane - Keezo's Groove
TTITLE16=Un Named Artists - Instrumental
TTITLE17=Un Named Artists Jill Scott???? - Been Here All The Time
EXTD=
EXTT0=
EXTT1=
EXTT2=
EXTT3=
EXTT4=
EXTT5=
EXTT6=
EXTT7=
EXTT8=
EXTT9=
EXTT10=
EXTT11=
EXTT12=
EXTT13=
EXTT14=
EXTT15=
EXTT16=
EXTT17=
PLAYORDER=
